<?xml version="1.0" encoding="utf-8"?>
<!DOCTYPE svg PUBLIC "-//W3C//DTD SVG 1.1//EN" "http://www.w3.org/Graphics/SVG/1.1/DTD/svg11.dtd">
<svg t="1691668969341" class="icon" viewBox="0 0 1024 1024" version="1.1" xmlns="http://www.w3.org/2000/svg" p-id="987" width="200" height="200"><path d="M146.944 695.9104h730.7776a66.56 66.56 0 0 0 60.7232-35.4304 54.8864 54.8864 0 0 0-5.12-58.2656l-366.2336-493.312a75.6224 75.6224 0 0 0-118.4256 0.5632L91.136 602.9824a54.6816 54.6816 0 0 0-4.7616 57.9584 66.56 66.56 0 0 0 60.5696 34.9696z m-22.6304-68.9152l357.5296-493.5168a31.8976 31.8976 0 0 1 26.0096-11.9296 32.1024 32.1024 0 0 1 26.3168 11.5712l366.0288 493.568a13.824 13.824 0 0 1 1.6384 15.36 26.2656 26.2656 0 0 1-24.1152 12.6976H146.944a26.368 26.368 0 0 1-24.064-12.3904 13.8752 13.8752 0 0 1 1.4336-15.36zM950.9376 775.0144a20.48 20.48 0 0 0-28.928-0.4096c-48.3328 47.0528-89.8048 31.3856-141.056-9.1136-54.5792-43.1104-111.3088-29.5424-143.36 3.1232-47.0016 48.384-72.96 42.1376-122.5216 0.3072-63.0784-53.1968-129.1264-24.9344-158.1568 7.0656-13.4144 14.7456-51.2 43.5712-111.2064-7.8336-65.8944-56.32-135.3216-14.848-162.8672 15.0016a20.48 20.48 0 0 0 30.1056 27.7504c2.1504-2.304 53.4016-56.7296 106.1376-11.6224 71.68 61.1328 135.2704 40.4992 168.1408 4.1984 15.8208-17.3568 57.344-40.448 101.4272-3.2256 57.856 48.7936 110.2848 66.9184 178.2272-3.0208 18.6368-18.9952 51.7632-28.8256 88.7296 0.4096 19.3024 15.36 58.88 46.5408 106.6496 46.5408 27.4944 0 57.7024-10.24 88.3712-40.192a20.48 20.48 0 0 0 0.3072-28.9792z" fill="#333333" p-id="988"></path><path d="M927.6928 854.3232a20.48 20.48 0 0 0-20.48 20.48v12.9024a5.12 5.12 0 0 1-5.12 5.12H141.2608a5.12 5.12 0 0 1-5.12-5.12V875.52a20.48 20.48 0 0 0-40.96 0v12.032a46.3872 46.3872 0 0 0 46.08 46.08h760.6272a46.3872 46.3872 0 0 0 46.08-46.08v-12.9024a20.48 20.48 0 0 0-20.2752-20.3264z" fill="#333333" p-id="989"></path></svg>